<svg xmlns="http://www.w3.org/2000/svg" viewBox="0 0 837 92" width="837" height="92">
	<style>
		tspan { white-space:pre }
		.shp0 { fill: #ffffff } 
	</style>
	<g id="Layer">
		<g id="Layer">
			<g id="Layer">
				<g id="Layer">
					<path id="Layer" fill-rule="evenodd" class="shp0" d="M412.18 45.6C412.18 58.85 408.85 69.27 402.18 76.86C395.51 84.45 386.18 88.24 374.18 88.24C361.98 88.24 352.59 84.49 346 77C339.41 69.51 336.08 59 336 45.48C336 32 339.33 21.55 346 14.12C352.67 6.69 362.09 2.99 374.28 3C386.17 3 395.46 6.77 402.14 14.32C408.82 21.87 412.17 32.29 412.18 45.6ZM346.18 45.6C346.18 56.81 348.57 65.32 353.34 71.12C358.11 76.92 365.06 79.81 374.18 79.8C383.35 79.8 390.28 76.91 394.96 71.14C399.64 65.37 401.99 56.85 402 45.6C402 34.47 399.67 26.02 395 20.26C390.33 14.5 383.43 11.61 374.28 11.6C365.11 11.6 358.13 14.5 353.36 20.3C348.59 26.1 346.2 34.53 346.2 45.6L346.18 45.6Z" />
					<path id="Layer" fill-rule="evenodd" class="shp0" d="M471.72 87.12L471.72 47C471.72 41.95 470.57 38.17 468.26 35.68C465.95 33.19 462.35 31.94 457.44 31.94C450.95 31.94 446.19 33.69 443.16 37.2C440.13 40.71 438.62 46.5 438.62 54.58L438.62 87.12L429.22 87.12L429.22 25L436.86 25L438.38 33.5L438.84 33.5C440.78 30.42 443.55 27.96 446.84 26.4C450.47 24.68 454.45 23.82 458.46 23.88C465.94 23.88 471.57 25.68 475.34 29.28C479.11 32.88 481 38.65 481 46.58L481 87.12L471.72 87.12Z" />
					<path id="Layer" fill-rule="evenodd" class="shp0" d="M526.66 88.24C517.49 88.24 510.25 85.45 504.94 79.86C499.63 74.27 496.97 66.51 496.94 56.58C496.94 46.58 499.41 38.63 504.34 32.74C509.22 26.86 516.56 23.59 524.2 23.9C531.19 23.57 537.96 26.39 542.66 31.58C547.19 36.7 549.46 43.45 549.46 51.82L549.46 57.82L506.72 57.82C506.91 65.11 508.75 70.65 512.24 74.42C516.11 78.35 521.49 80.41 527 80.08C533.82 80.05 540.57 78.62 546.82 75.88L546.82 84.26C543.78 85.6 540.62 86.63 537.38 87.34C533.85 88 530.25 88.3 526.66 88.24ZM524.1 31.78C519.58 31.56 515.18 33.34 512.1 36.66C508.91 40.45 507.07 45.19 506.86 50.14L539.4 50.14C539.4 44.21 538.07 39.67 535.4 36.52C532.56 33.29 528.39 31.54 524.1 31.78Z" />
					<path id="Layer" class="shp0" d="M592.42 87.12L582.8 87.12L582.8 12.86L556.56 12.86L556.56 4.3L618.56 4.3L618.56 12.86L592.42 12.86L592.42 87.12Z" />
					<path id="Layer" fill-rule="evenodd" class="shp0" d="M658 23.9C660.49 23.88 662.98 24.1 665.42 24.58L664.12 33.3C661.89 32.78 659.61 32.5 657.32 32.46C652.32 32.45 647.59 34.7 644.44 38.58C640.81 42.81 638.9 48.25 639.08 53.82L639.08 87.12L629.68 87.12L629.68 25L637.44 25L638.52 36.5L638.98 36.5C640.99 32.78 643.84 29.59 647.3 27.16C650.45 25.01 654.18 23.87 658 23.9Z" />
					<path id="Layer" fill-rule="evenodd" class="shp0" d="M685.86 25L685.86 65.3C685.86 70.37 687.01 74.14 689.32 76.62C691.63 79.1 695.23 80.35 700.14 80.36C706.63 80.36 711.38 78.59 714.38 75.04C717.38 71.49 718.88 65.7 718.88 57.66L718.88 25L728.28 25L728.28 87L720.52 87L719.16 78.68L718.66 78.68C716.73 81.74 713.95 84.18 710.66 85.7C706.99 87.38 702.99 88.21 698.96 88.14C691.41 88.14 685.76 86.35 682 82.76C678.24 79.17 676.36 73.43 676.36 65.54L676.36 25L685.86 25Z" />
					<path id="Layer" fill-rule="evenodd" class="shp0" d="M788.28 70.18C788.53 75.44 786.1 80.47 781.82 83.54C777.51 86.67 771.47 88.24 763.7 88.24C755.47 88.24 749.05 86.91 744.44 84.24L744.44 75.62C747.5 77.16 750.72 78.35 754.04 79.18C757.27 80.02 760.59 80.46 763.92 80.48C767.83 80.7 771.74 79.88 775.24 78.12C777.58 76.78 779.1 74.35 779.26 71.66C779.43 68.97 778.22 66.37 776.06 64.76C772.27 62.2 768.14 60.18 763.8 58.76C759.51 57.27 755.38 55.34 751.48 53C749.26 51.64 747.38 49.79 746 47.58C744.76 45.35 744.15 42.83 744.22 40.28C744.09 35.49 746.42 30.96 750.4 28.28C754.52 25.36 760.17 23.9 767.34 23.9C774.08 23.89 780.75 25.25 786.94 27.9L783.6 35.54C778.26 33.16 772.5 31.85 766.66 31.68C763.21 31.45 759.76 32.14 756.66 33.68C754.54 34.82 753.23 37.05 753.26 39.46C753.22 40.97 753.67 42.46 754.54 43.7C755.65 45.09 757.05 46.23 758.64 47.04C762.16 48.8 765.8 50.33 769.52 51.62C776.88 54.29 781.85 56.95 784.44 59.62C787.11 62.47 788.5 66.28 788.28 70.18L788.28 70.18Z" />
					<path id="Layer" fill-rule="evenodd" class="shp0" d="M823.62 80.48C825.23 80.49 826.85 80.37 828.44 80.12C829.68 79.94 830.91 79.69 832.12 79.36L832.12 86.56C830.68 87.17 829.17 87.58 827.62 87.78C825.85 88.08 824.06 88.24 822.26 88.26C810.26 88.26 804.26 81.93 804.26 69.28L804.26 32.34L795.36 32.34L795.36 27.8L804.26 23.8L808.26 10.54L813.7 10.54L813.7 25L831.7 25L831.7 32.3L813.7 32.3L813.7 68.88C813.49 71.98 814.44 75.04 816.36 77.48C818.21 79.51 820.87 80.61 823.62 80.48L823.62 80.48Z" />
				</g>
			</g>
			<path id="Powered by " fill="#ffffff" d="M20.29 43.6L14.09 43.6L14.09 57.3L20.29 57.3Q23.74 57.3 25.62 55.52Q27.5 53.73 27.5 50.44Q27.5 47.17 25.62 45.38Q23.74 43.6 20.29 43.6ZM9.16 76L9.16 39.55L20.29 39.55Q26.42 39.55 29.55 42.33Q32.7 45.09 32.7 50.44Q32.7 55.83 29.55 58.59Q26.42 61.35 20.29 61.35L14.09 61.35L14.09 76L9.16 76ZM47.93 51.81Q44.32 51.81 42.22 54.64Q40.12 57.45 40.12 62.35Q40.12 67.26 42.19 70.09Q44.29 72.9 47.93 72.9Q51.52 72.9 53.62 70.07Q55.72 67.24 55.72 62.35Q55.72 57.49 53.62 54.66Q51.52 51.81 47.93 51.81ZM47.93 48Q53.79 48 57.14 51.81Q60.48 55.61 60.48 62.35Q60.48 69.07 57.14 72.9Q53.79 76.71 47.93 76.71Q42.05 76.71 38.7 72.9Q35.38 69.07 35.38 62.35Q35.38 55.61 38.7 51.81Q42.05 48 47.93 48ZM72.47 76L65.31 48.66L69.81 48.66L75.42 69.99L81.01 48.66L86.31 48.66L91.93 69.99L97.52 48.66L102.01 48.66L94.86 76L89.56 76L83.67 53.59L77.77 76L72.47 76ZM132.21 61.21L132.21 63.4L111.55 63.4Q111.85 68.04 114.34 70.48Q116.85 72.9 121.32 72.9Q123.91 72.9 126.33 72.26Q128.77 71.63 131.16 70.36L131.16 74.61Q128.74 75.63 126.2 76.17Q123.66 76.71 121.05 76.71Q114.51 76.71 110.68 72.9Q106.87 69.09 106.87 62.6Q106.87 55.88 110.48 51.95Q114.12 48 120.27 48Q125.79 48 128.99 51.56Q132.21 55.1 132.21 61.21ZM111.7 59.91L127.72 59.89Q127.67 56.2 125.64 54Q123.64 51.81 120.32 51.81Q116.56 51.81 114.29 53.93Q112.04 56.05 111.7 59.91ZM155.4 48.24L155.43 52.86Q154.67 52.42 153.77 52.22Q152.89 52 151.81 52Q148 52 145.95 54.49Q143.93 56.96 143.93 61.6L143.93 76L139.41 76L139.41 48.66L143.93 48.66L143.93 52.9Q145.34 50.41 147.61 49.22Q149.88 48 153.13 48Q153.6 48 154.16 48.07Q154.72 48.12 155.4 48.24ZM182.43 61.21L182.43 63.4L161.77 63.4Q162.07 68.04 164.56 70.48Q167.07 72.9 171.54 72.9Q174.13 72.9 176.54 72.26Q178.99 71.63 181.38 70.36L181.38 74.61Q178.96 75.63 176.42 76.17Q173.88 76.71 171.27 76.71Q164.73 76.71 160.9 72.9Q157.09 69.09 157.09 62.6Q157.09 55.88 160.7 51.95Q164.34 48 170.49 48Q176.01 48 179.21 51.56Q182.43 55.1 182.43 61.21ZM161.92 59.91L177.94 59.89Q177.89 56.2 175.86 54Q173.86 51.81 170.54 51.81Q166.78 51.81 164.51 53.93Q162.26 56.05 161.92 59.91ZM207.79 52.81L207.79 38.01L212.29 38.01L212.29 76L207.79 76L207.79 71.9Q206.38 74.34 204.21 75.54Q202.06 76.71 199.03 76.71Q194.07 76.71 190.95 72.75Q187.85 68.8 187.85 62.35Q187.85 55.91 190.95 51.95Q194.07 48 199.03 48Q202.06 48 204.21 49.19Q206.38 50.37 207.79 52.81ZM192.49 62.35Q192.49 67.31 194.51 70.14Q196.56 72.95 200.13 72.95Q203.69 72.95 205.74 70.14Q207.79 67.31 207.79 62.35Q207.79 57.4 205.74 54.59Q203.69 51.76 200.13 51.76Q196.56 51.76 194.51 54.59Q192.49 57.4 192.49 62.35ZM257.06 62.35Q257.06 57.4 255.01 54.59Q252.99 51.76 249.42 51.76Q245.86 51.76 243.81 54.59Q241.78 57.4 241.78 62.35Q241.78 67.31 243.81 70.14Q245.86 72.95 249.42 72.95Q252.99 72.95 255.01 70.14Q257.06 67.31 257.06 62.35ZM241.78 38.01L241.78 52.81Q243.2 50.37 245.34 49.19Q247.52 48 250.52 48Q255.5 48 258.6 51.95Q261.73 55.91 261.73 62.35Q261.73 68.8 258.6 72.75Q255.5 76.71 250.52 76.71Q247.52 76.71 245.34 75.54Q243.2 74.34 241.78 71.9L241.78 76L237.26 76L237.26 38.01L241.78 38.01ZM292.56 48.66L280.55 78.54Q278.64 83.42 276.84 84.91Q275.03 86.4 272 86.4L268.42 86.4L268.42 82.64L271.05 82.64Q272.91 82.64 273.93 81.76Q274.96 80.88 276.2 77.61L277.01 75.56L265.95 48.66L270.71 48.66L279.25 70.04L287.8 48.66L292.56 48.66Z" />
		</g>
	</g>
</svg>